<?xml version="1.0" encoding="UTF-8"?>
<svg id="Layer_1" width="400" height="200" data-name="Layer 1" xmlns="http://www.w3.org/2000/svg" viewBox="0 0 502.28 132.62">
  <defs>
    <style>
      .cls-1 {
        fill: #00406f;
      }
    </style>
  </defs>
  <path class="cls-1" d="M471.96,126.39h-1.19c0-33.01-26.76-59.77-59.77-59.77s-59.77,26.76-59.77,59.77h-1.19c0-33.66,27.29-60.95,60.95-60.95s60.95,27.29,60.95,60.95Z"/>
  <path class="cls-1" d="M398.22,132.62c-.49-.63-.97-1.27-1.43-1.91-.37-.51-.72-1.02-1.08-1.54-18.81-27.92-11.43-65.8,16.48-84.61,27.9-18.8,65.76-11.44,84.58,16.44,2.14,3.17,3.98,6.54,5.5,10.06l-1.09.47c-13.05-30.35-48.23-44.38-78.58-31.33-3.42,1.47-6.69,3.26-9.78,5.33-27.36,18.46-34.59,55.6-16.13,82.97,0,0,0,0,0,0,.35.51.7,1.02,1.05,1.51.45.63.93,1.26,1.41,1.88l-.93.73Z"/>
  <path class="cls-1" d="M409.92,102.61c-32.6.02-59.45-25.58-60.99-58.14l1.18-.05c1.55,32.97,29.53,58.45,62.5,56.9,32.97-1.55,58.45-29.53,56.9-62.5-.66-14.17-6.35-27.64-16.03-38.01l.87-.81c23,24.61,21.69,63.21-2.93,86.21-5.2,4.86-11.22,8.77-17.77,11.56-7.5,3.19-15.58,4.84-23.73,4.85Z"/>
  <circle class="cls-1" cx="470.15" cy="41.73" r="10.02"/>
  <circle class="cls-1" cx="367.39" cy="84.51" r="10.02"/>
  <circle class="cls-1" cx="386.98" cy="97.71" r="10.02"/>
  <circle class="cls-1" cx="409.98" cy="102.03" r="10.02"/>
  <circle class="cls-1" cx="433.36" cy="97.71" r="10.02"/>
  <circle class="cls-1" cx="452.62" cy="84.51" r="10.02"/>
  <circle class="cls-1" cx="465.7" cy="64.73" r="10.02"/>
  <path class="cls-1" d="M41.65,77.32c.03-.23.04-.47.04-.7,0-.44-.37-.88-1.12-1.32-.94-.52-1.94-.92-2.98-1.2-1.4-.39-2.82-.7-4.26-.91-1.67-.25-3.36-.38-5.05-.37-1.75.01-3.5.21-5.21.58-1.76.36-3.45,1.01-5,1.9-1.5.87-2.77,2.07-3.72,3.52-1.93,3.3-1.93,7.38,0,10.67.95,1.45,2.22,2.65,3.72,3.52,1.56.9,3.25,1.54,5,1.9,1.71.37,3.46.57,5.21.58,1.14-.04,2.27-.17,3.39-.37,1.56-.25,3.11-.6,4.63-1.03,1.4-.39,2.77-.89,4.09-1.49,1.19-.55,1.78-1.13,1.78-1.74.01-.23-.05-.46-.16-.66-.12-.19-.23-.38-.33-.58l.91-.58,8.52,12.99-.99.58c-.07-.23-.24-.43-.45-.54-.22-.09-.46-.13-.7-.12-.8.12-1.58.35-2.32.7-1.48.57-2.98,1.07-4.51,1.49-2.14.59-4.31,1.06-6.49,1.41-2.76.43-5.56.64-8.35.62-3.32,0-6.63-.43-9.84-1.28-3.15-.8-6.12-2.18-8.77-4.05-2.58-1.83-4.72-4.2-6.29-6.95-3.2-6.09-3.2-13.36,0-19.44,1.56-2.75,3.71-5.12,6.29-6.95,2.66-1.88,5.63-3.3,8.77-4.18,3.2-.93,6.51-1.4,9.84-1.41,2.86-.03,5.72.15,8.56.54,2.05.29,4.08.69,6.08,1.2,1.6.44,2.84.81,3.72,1.12.64.25,1.3.4,1.98.45.5,0,.96-.25,1.24-.66l.91.25-7.45,13.65-.83-.58c.06-.18.1-.36.12-.54Z"/>
  <path class="cls-1" d="M105.8,95.36c.3-.58.47-1.21.5-1.86h.99v14.31h-.99c0-.58-.17-1.14-.5-1.61-.29-.21-.64-.32-.99-.29h-43.18v-.99c.69,0,1.36-.18,1.94-.54.25-.25.38-.6.37-.95v-38.55c.01-.35-.12-.7-.37-.95-.59-.36-1.26-.54-1.94-.54v-.99h17.04v.99c-.69,0-1.36.18-1.94.54-.25.25-.38.6-.37.95v30.94h28.46c.39.03.76-.15.99-.46Z"/>
  <path class="cls-1" d="M128.94,104.7c.37.18.79.25,1.2.21v.99h-14.64v-.99c.48-.06.94-.24,1.32-.54.37-.39.65-.86.83-1.37.11-.28.39-1.02.83-2.23.44-1.21,1.02-2.74,1.74-4.59.72-1.85,1.52-3.9,2.4-6.16.88-2.26,1.77-4.56,2.65-6.91.88-2.34,1.75-4.63,2.61-6.87.85-2.23,1.61-4.23,2.27-6l1.61-4.3c.41-1.1.62-1.68.62-1.74,0-.28-.18-.47-.54-.58-.37-.11-.74-.2-1.12-.25v-.99h21.59v.99c-.37.04-.73.12-1.08.25-.28.11-.41.39-.41.83.22.73.48,1.45.79,2.15.52,1.32,1.2,3.05,2.03,5.17.83,2.12,1.78,4.52,2.85,7.2,1.08,2.67,2.19,5.4,3.35,8.19,1.16,2.78,2.27,5.5,3.35,8.15,1.08,2.65,2.05,5.02,2.94,7.11.28.71.65,1.38,1.12,1.98.31.33.75.51,1.2.5v.99h-16.3v-.99c1.05-.06,1.57-.39,1.57-.99-.12-.38-.25-.75-.41-1.12-.28-.69-.58-1.46-.91-2.32-.33-.85-.65-1.67-.95-2.44-.22-.51-.4-1.04-.54-1.57h-19.61c-.55,1.49-.99,2.7-1.32,3.64-.33.94-.59,1.68-.79,2.23-.19.55-.33.95-.41,1.2-.07.17-.11.35-.12.54-.02.24.09.48.29.62ZM140.73,70.17l-7.36,19.69h15.39l-8.02-19.69Z"/>
  <path class="cls-1" d="M193.63,104.37c.59.35,1.26.54,1.94.54v.99h-17.04v-.99c.69,0,1.36-.18,1.94-.54.25-.25.38-.6.37-.95v-38.55c.01-.35-.12-.7-.37-.95-.59-.36-1.26-.54-1.94-.54v-.99h30.28c6.12,0,10.56,1.12,13.32,3.35,2.76,2.23,4.14,5.69,4.14,10.38,0,3.81-1.12,6.78-3.35,8.93-2.39,2.24-5.31,3.83-8.48,4.63l9.76,13.73c.48.88,1.39,1.45,2.4,1.49v.99h-17.21v-.99c1.21-.06,1.82-.55,1.82-1.49-.16-.42-.39-.81-.66-1.16-.44-.66-.99-1.46-1.65-2.4-.66-.94-1.39-1.94-2.19-3.02-.8-1.08-1.57-2.11-2.32-3.1-.75-.99-1.39-1.87-1.94-2.65-.55-.77-.91-1.3-1.08-1.57h-8.11v13.9c-.01.35.12.7.37.95ZM212.16,79.39c1.76-1.67,1.83-4.46.15-6.22-.05-.05-.1-.1-.15-.15-.91-.91-2.58-1.36-5-1.36h-13.9v9.1h13.9c2.43,0,4.09-.45,5-1.36Z"/>
  <path class="cls-1" d="M241.12,104.37c.25-.25.39-.6.37-.95v-38.55c.01-.36-.12-.7-.37-.95-.59-.36-1.26-.54-1.94-.54v-.99h17.04v.99c-.69,0-1.36.18-1.94.54-.25.25-.38.6-.37.95v38.55c-.01.35.12.7.37.95.59.35,1.26.54,1.94.54v.99h-17.04v-.99c.69,0,1.36-.18,1.94-.54Z"/>
  <path class="cls-1" d="M270.39,63.92c-.59-.36-1.26-.54-1.94-.54v-.99h19.94v.99c-.64-.01-1.27.11-1.86.37-.27.14-.44.4-.45.7.29.54.65,1.04,1.08,1.49.72.88,1.65,1.99,2.81,3.31s2.47,2.8,3.93,4.43c1.46,1.63,2.94,3.25,4.43,4.88,1.49,1.63,2.92,3.17,4.3,4.63,1.38,1.46,2.56,2.72,3.56,3.76v-22.09c0-.94-.58-1.43-1.74-1.49v-.99h15.14v.99c-.69,0-1.36.18-1.94.54-.25.25-.38.6-.37.95v38.55c-.01.35.12.7.37.95.59.35,1.26.54,1.94.54v.99h-15.72v-.99c.52.05,1.05-.04,1.53-.25.23-.14.37-.39.37-.66-.02-.23-.11-.44-.25-.62-.33-.45-.69-.88-1.08-1.28-.55-.61-1.37-1.48-2.44-2.61-1.08-1.13-2.5-2.65-4.26-4.55-1.77-1.9-3.94-4.27-6.53-7.11-2.59-2.84-5.71-6.3-9.35-10.38v25.97c-.01.35.12.7.37.95.59.35,1.26.54,1.94.54v.99h-15.72v-.99c.69,0,1.36-.18,1.94-.54.25-.25.38-.6.37-.95v-38.55c.01-.35-.12-.7-.37-.95Z"/>
</svg>